<?xml version="1.0" encoding="utf-8"?>
<!-- Generator: Adobe Illustrator 21.1.0, SVG Export Plug-In . SVG Version: 6.00 Build 0)  -->
<svg version="1.1" id="Слой_1" xmlns="http://www.w3.org/2000/svg" xmlns:xlink="http://www.w3.org/1999/xlink" x="0px" y="0px"
	 viewBox="0 0 189.3 189.5" enable-background="new 0 0 189.3 189.5" xml:space="preserve">
<path fill="none" stroke="#000000" stroke-miterlimit="10" d="M191.6,56.3"/>
<path fill="none" stroke="#000000" stroke-miterlimit="10" d="M136.5,3.2"/>
<circle fill="#CCCCCC" stroke="#CCCCCC" stroke-miterlimit="10" cx="94.7" cy="94.5" r="93.4"/>
<line fill="none" stroke="#000000" stroke-miterlimit="10" x1="126.4" y1="34.4" x2="126.4" y2="34.4"/>
<g id="XMLID_2_">
	<g>
		<path d="M94.7,4.8c0,36.5,54,90.3,90.5,90.3c-36.5,0-90.5,53.8-90.5,90.3c0-36.5-54-90.3-90.5-90.3C40.7,95.1,94.7,41.3,94.7,4.8z
			"/>
	</g>
	<g>
		<path fill="none" stroke="#000000" stroke-miterlimit="10" d="M94.7,4.8c0,36.5,54,90.3,90.5,90.3"/>
		<path fill="none" stroke="#000000" stroke-miterlimit="10" d="M94.7,4.8c0,36.5-54,90.3-90.5,90.3"/>
		<path fill="none" stroke="#000000" stroke-miterlimit="10" d="M94.7,185.3c0-36.5-54-90.3-90.5-90.3"/>
		<path fill="none" stroke="#000000" stroke-miterlimit="10" d="M94.7,185.3c0-36.5,54-90.3,90.5-90.3"/>
	</g>
</g>
<g>
	<g id="XMLID_1_">
		<g>
			<path fill="#CCCCCC" d="M94.7,45c8.2,24.7,24.7,41.4,49.4,49.4c-24.7,8.1-41.2,24.7-49.4,49.5c-8.2-24.7-24.7-41.4-49.4-49.5
				C70,86.4,86.5,69.8,94.7,45z"/>
		</g>
		<g>
			<path fill="none" stroke="#CCCCCC" stroke-miterlimit="10" d="M94.7,45c8.2,24.7,24.7,41.4,49.4,49.4"/>
			<path fill="none" stroke="#CCCCCC" stroke-miterlimit="10" d="M94.7,45C86.5,69.8,70,86.4,45.3,94.5"/>
			<path fill="none" stroke="#CCCCCC" stroke-miterlimit="10" d="M94.7,144c8.2-24.7,24.7-41.4,49.4-49.5"/>
			<path fill="none" stroke="#CCCCCC" stroke-miterlimit="10" d="M94.7,144c-8.2-24.7-24.7-41.4-49.4-49.5"/>
		</g>
	</g>
</g>
</svg>
